<svg width="1915" height="1195" viewBox="0 0 1915 1195" fill="none" xmlns="http://www.w3.org/2000/svg">
<path d="M-687.673 794.016L-647.25 784.848L-607.249 775.13L-567.745 764.764L-528.804 753.663L-490.312 741.977L-452.386 729.551L-414.858 716.607L-377.704 703.175L-340.904 689.281L-304.451 674.935L-268.349 660.129L-232.625 644.832L-197.321 628.986L-162.504 612.505L-128.257 595.28L-94.6754 577.188L-61.8476 558.112L-29.8669 537.931L1.20192 516.56L31.3318 493.964L60.5219 470.142L88.7962 445.126L116.204 418.979L142.818 391.796L168.724 363.69L194.024 334.793L218.73 305.122L242.923 274.781L266.584 243.746L289.82 212.157L312.788 180.218L335.694 148.198L358.788 116.422L382.35 85.2589L406.676 55.0909L432.05 26.2911L458.724 -0.813345L486.883 -25.981L516.625 -49.082L547.974 -70.0872L580.885 -89.0557L615.26 -106.113L650.975 -121.422L687.798 -135.287L725.31 -148.252L762.995 -160.991L800.327 -174.19L836.832 -188.469L872.131 -204.322L905.968 -222.081L938.224 -241.903L968.916 -263.766L998.191 -287.476L1026.31 -312.694L1053.49 -339.135L1080.4 -365.935L1107.37 -392.65L1134.88 -418.666L1163.37 -443.408L1193.18 -466.418L1224.54 -487.408L1257.63 -506.137L1292.44 -522.634L1328.85 -537.034L1366.7 -549.555L1405.78 -560.483L1445.81 -570.162L1486.5 -578.978L1527.54 -587.339L1568.61 -595.661L1609.41 -604.344L1649.65 -613.74L1689.21 -624.041L1728.05 -635.272L1766.24 -647.358L1803.86 -660.175L1841.03 -673.581L1877.86 -687.437L1914.44 -701.617L1950.86 -716.017L1987.16 -730.555L2023.4 -745.182L2059.59 -759.879" stroke="white" stroke-miterlimit="10"/>
<path d="M-664.591 823.882L-624.112 814.784L-583.941 805.286L-544.17 795.264L-504.888 784.606L-466.169 773.213L-427.841 761.309L-390.083 748.663L-352.758 735.452L-315.87 721.672L-279.424 707.313L-243.439 692.354L-207.943 676.757L-172.98 660.466L-138.608 643.403L-104.897 625.478L-71.921 606.594L-39.7445 586.667L-8.4132 565.639L22.0425 543.468L51.629 520.163L80.3707 495.756L108.314 470.308L135.526 443.907L162.092 416.662L188.108 388.7L213.671 360.148L238.741 330.952L263.419 301.245L287.623 270.92L311.437 240.086L334.991 208.913L358.469 177.64L382.098 146.565L406.139 116.027L430.87 86.3892L456.565 58.0086L483.47 31.207L511.776 6.23188L541.589 -16.7781L572.938 -37.7838L605.793 -56.8244L640.085 -73.9926L675.715 -89.4149L712.477 -103.359L749.978 -116.341L787.714 -129.016L825.165 -142.064L861.854 -156.104L897.399 -171.638L931.534 -189.009L964.129 -208.389L995.125 -229.856L1024.74 -253.127L1053.16 -277.945L1080.74 -303.871L1107.88 -330.373L1135.02 -356.863L1162.64 -382.736L1191.17 -407.417L1220.96 -430.451L1252.25 -451.541L1285.21 -470.439L1319.85 -487.161L1356.05 -501.831L1393.67 -514.661L1432.48 -525.929L1472.24 -535.974L1512.63 -545.178L1553.37 -553.945L1594.12 -562.687L1634.58 -571.802L1674.47 -581.672L1713.55 -592.591L1751.81 -604.591L1789.28 -617.612L1826.07 -631.515L1862.32 -646.129L1898.17 -661.27L1933.74 -676.764L1969.16 -692.456L2004.54 -708.216L2039.93 -723.949L2075.38 -739.601" stroke="white" stroke-miterlimit="10"/>
<path d="M-640.912 854.504L-600.388 845.463L-560.068 836.157L-520.062 826.441L-480.478 816.175L-441.414 805.229L-402.813 793.681L-364.866 781.28L-327.412 768.235L-290.477 754.515L-254.083 740.088L-218.256 724.922L-183.029 708.974L-148.442 692.19L-114.546 674.506L-81.395 655.85L-49.0415 636.154L-17.5182 615.375L13.1651 593.5L43.0224 570.549L72.0869 546.563L100.408 521.608L128.053 495.771L155.107 469.164L181.666 441.911L207.832 414.145L233.702 385.994L259.168 357.315L284.368 328.29L309.154 298.724L333.58 268.69L357.754 238.325L381.831 207.837L406.017 177.488L430.55 147.593L455.69 118.489L481.699 90.5184L508.818 63.9966L537.244 39.1782L567.095 16.2183L598.413 -4.82813L631.189 -23.9739L665.38 -41.2737L700.906 -56.8315L737.586 -70.8861L775.05 -83.9173L812.812 -96.5597L850.358 -109.483L887.215 -123.307L922.992 -138.538L957.398 -155.558L990.293 -174.547L1021.65 -195.544L1051.57 -218.41L1080.28 -242.855L1108.11 -268.459L1135.44 -294.702L1162.73 -321.006L1190.43 -346.773L1218.98 -371.428L1248.73 -394.518L1279.92 -415.734L1312.74 -434.823L1347.18 -451.788L1383.17 -466.741L1420.55 -479.884L1459.11 -491.491L1498.59 -501.894L1538.7 -511.469L1579.14 -520.622L1619.59 -529.761L1659.73 -539.303L1699.23 -549.678L1737.85 -561.201L1775.47 -574.032L1812.17 -588.048L1848.09 -603.103L1883.36 -618.993L1918.16 -635.492L1952.67 -652.378L1987.04 -669.443L2021.41 -686.508L2055.89 -703.435L2090.55 -720.131" stroke="white" stroke-miterlimit="10"/>
<path d="M-616.689 885.83L-576.14 876.82L-535.701 867.667L-495.499 858.205L-455.661 848.268L-416.309 837.698L-377.55 826.354L-339.316 814.326L-301.774 801.395L-264.832 787.683L-228.526 773.14L-192.891 757.722L-157.963 741.383L-123.778 724.075L-90.377 705.744L-57.7985 686.341L-26.0705 665.829L4.80568 644.206L34.8606 621.512L64.1446 597.813L92.7177 573.186L120.653 547.729L148.039 521.555L174.978 494.797L201.574 467.593L227.934 440.081L254.152 412.383L280.046 384.264L305.804 355.967L331.205 327.205L356.277 298.013L381.099 268.494L405.8 238.819L430.56 209.22L455.594 179.979L481.143 151.41L507.457 123.837L534.773 97.5723L563.294 72.8776L593.155 49.9315L624.419 28.8135L657.1 9.54416L691.18 -7.90051L726.586 -23.6163L763.156 -37.8146L800.553 -50.9341L838.312 -63.583L875.927 -76.4184L912.924 -90.0595L948.901 -105.03L983.562 -121.718L1016.73 -140.349L1048.37 -160.975L1078.57 -183.482L1107.54 -207.599L1135.57 -232.924L1163.07 -258.951L1190.47 -285.111L1218.22 -310.811L1246.76 -335.479L1276.44 -358.657L1307.51 -380.026L1340.17 -399.331L1374.41 -416.56L1410.18 -431.809L1447.31 -445.272L1485.61 -457.215L1524.83 -467.963L1564.67 -477.89L1604.84 -487.398L1645.01 -496.904L1684.83 -506.86L1723.96 -517.726L1762.06 -529.918L1799.11 -543.496L1835.02 -558.55L1870.02 -574.796L1904.29 -592.002L1938.02 -609.904L1971.42 -628.228L2004.7 -646.718L2038.03 -665.147L2071.54 -683.329L2105.34 -701.135" stroke="white" stroke-miterlimit="10"/>
<path d="M-591.989 917.778L-551.444 908.762L-510.924 899.713L-470.573 890.444L-430.536 880.764L-390.957 870.488L-351.963 859.449L-313.666 847.502L-275.971 834.769L-239.057 821.019L-202.871 806.319L-167.455 790.615L-132.847 773.857L-99.0798 756.003L-66.1824 737.015L-34.1762 716.866L-3.06458 695.549L27.1839 673.108L56.6396 649.632L85.3838 625.229L113.503 600.012L141.094 574.105L168.265 547.651L195.132 520.801L221.81 493.703L248.405 466.498L275.008 439.303L301.362 411.784L327.708 384.254L353.752 356.33L379.494 328.014L404.985 299.369L430.326 270.529L455.669 241.691L481.207 213.107L507.161 185.066L533.768 157.877L561.263 131.846L589.856 107.246L619.706 84.2845L650.901 63.0771L683.484 43.6785L717.445 26.078L752.716 10.1842L789.15 -4.19157L826.449 -17.4416L864.168 -30.1418L901.817 -42.9346L938.918 -56.4423L975.058 -71.2022L1009.93 -87.621L1043.33 -105.947L1075.21 -126.256L1105.65 -148.456L1134.82 -172.297L1163.04 -197.392L1190.66 -223.251L1218.14 -249.312L1245.9 -274.989L1274.4 -299.712L1303.99 -323.015L1334.92 -344.57L1367.39 -364.118L1401.41 -381.633L1436.94 -397.194L1473.82 -410.985L1511.87 -423.261L1550.83 -434.342L1590.43 -444.596L1630.35 -454.426L1670.26 -464.272L1709.78 -474.623L1748.54 -485.966L1786.21 -498.729L1822.72 -513.002L1857.83 -529.114L1891.9 -546.564L1925.15 -565.097L1957.8 -584.412L1990.09 -604.192L2022.26 -624.129L2054.51 -643.949L2087.04 -663.423L2119.96 -682.385" stroke="white" stroke-miterlimit="10"/>
<path d="M-566.881 950.27L-526.374 941.202L-485.819 932.196L-445.373 923.049L-405.2 913.545L-365.461 903.476L-326.303 892.649L-287.855 880.897L-250.136 868.194L-213.283 854.362L-177.242 839.472L-142.066 823.455L-107.791 806.262L-74.4463 787.856L-42.0498 768.215L-10.6043 747.334L19.912 725.241L49.5644 702.022L78.4584 677.815L106.704 652.762L134.413 627.009L161.705 600.714L188.707 574.04L215.548 547.156L242.349 520.22L269.218 493.373L296.239 466.723L323.081 439.84L350.038 413.107L376.746 386.05L403.176 358.63L429.349 330.876L455.339 302.882L481.268 274.81L507.306 246.879L533.656 219.355L560.544 192.532L588.203 166.714L616.852 142.188L646.679 119.196L677.804 97.8978L710.288 78.3692L744.123 60.6038L779.244 44.5144L815.52 29.9298L852.686 16.5066L890.33 3.70608L927.97 -9.09947L965.128 -22.5332L1001.38 -37.1436L1036.41 -53.355L1070 -71.4367L1102.09 -91.4886L1132.71 -113.44L1162.06 -137.059L1190.4 -161.978L1218.12 -187.719L1245.63 -213.73L1273.38 -239.431L1301.8 -264.252L1331.27 -287.72L1362.03 -309.495L1394.28 -329.319L1428.07 -347.144L1463.34 -363.037L1499.97 -377.165L1537.76 -389.774L1576.48 -401.176L1615.84 -411.734L1655.54 -421.856L1695.21 -432.017L1734.45 -442.74L1772.86 -454.532L1810.12 -467.835L1845.97 -482.981L1880.58 -499.734L1913.74 -518.374L1945.99 -538.215L1977.56 -558.924L2008.75 -580.141L2039.82 -601.515L2071.01 -622.725L2102.54 -643.501L2134.56 -663.639" stroke="white" stroke-miterlimit="10"/>
<path d="M-541.389 983.244L-500.962 974.07L-460.423 965.041L-419.943 955.936L-379.699 946.522L-339.871 936.567L-300.623 925.857L-262.098 914.202L-224.415 901.451L-187.592 887.579L-151.721 872.467L-116.796 856.12L-82.8594 838.486L-49.9336 819.534L-18.025 799.256L12.882 777.673L42.8355 754.846L71.9333 730.905L100.311 706.024L128.104 680.382L155.452 654.159L182.494 627.538L209.375 600.706L236.234 573.847L263.199 547.125L290.376 520.68L317.842 494.611L345.198 468.398L372.781 442.482L400.165 416.307L427.293 389.797L454.154 362.94L480.793 335.793L507.305 308.481L533.836 281.194L560.572 254.173L587.728 227.701L615.538 202.081L644.239 177.621L674.043 154.601L705.106 133.22L737.49 113.562L771.194 95.6243L806.154 79.3243L842.249 64.5034L879.252 50.865L916.779 37.9109L954.364 25.0317L991.53 11.6069L1027.85 -2.92043L1062.99 -18.9907L1096.72 -36.8934L1128.95 -56.7503L1159.72 -78.5119L1189.19 -101.968L1217.63 -126.765L1245.4 -152.441L1272.91 -178.452L1300.6 -204.224L1328.92 -229.189L1358.22 -252.865L1388.78 -274.899L1420.8 -295.031L1454.33 -313.197L1489.33 -329.442L1525.69 -343.921L1563.22 -356.867L1601.7 -368.582L1640.85 -379.423L1680.34 -389.815L1719.79 -400.269L1758.76 -411.335L1796.86 -423.539L1833.75 -437.333L1869.15 -453.055L1902.93 -470.899L1935.6 -490.184L1966.88 -511.284L1997.42 -533.335L2027.55 -555.941L2057.54 -578.71L2087.69 -601.279L2118.24 -623.338L2149.35 -644.647" stroke="white" stroke-miterlimit="10"/>
<path d="M-515.615 1016.59L-475.314 1007.25L-434.849 998.126L-394.399 988.98L-354.156 979.563L-314.312 969.626L-275.048 958.935L-236.521 947.282L-198.862 934.498L-162.171 920.452L-126.458 905.131L-91.7953 888.442L-58.1948 870.369L-25.6756 850.886L5.76747 830.001L36.1687 807.758L65.6024 784.255L94.1952 759.655L122.108 734.169L149.503 708.008L176.542 681.383L203.385 654.504L230.194 627.579L257.116 600.802L284.283 574.344L311.799 548.341L339.732 522.881L367.622 497.367L395.841 472.28L423.909 446.995L451.736 421.398L479.284 395.437L506.567 369.13L533.655 342.569L560.669 315.912L587.781 289.382L615.194 263.244L643.159 237.827L671.918 213.444L701.716 190.415L732.723 168.961L765.01 149.176L798.578 131.061L833.368 114.538L869.265 99.4576L906.072 85.5631L943.441 72.4008L980.923 59.3852L1018.05 45.9023L1054.38 31.3895L1089.57 15.3925L1123.39 -2.39719L1155.72 -22.1223L1186.59 -43.7547L1216.15 -67.1036L1244.64 -91.8339L1272.42 -117.495L1299.89 -143.556L1327.49 -169.447L1355.66 -194.601L1384.77 -218.528L1415.1 -240.861L1446.85 -261.338L1480.1 -279.875L1514.81 -296.498L1550.89 -311.345L1588.16 -324.635L1626.4 -336.658L1665.35 -347.768L1704.64 -358.416L1743.88 -369.144L1782.62 -380.522L1820.44 -393.091L1857 -407.315L1892.02 -423.537L1925.36 -441.952L1956.99 -462.593L1987.84 -484.244L2017.42 -507.555L2046.54 -531.47L2075.53 -555.56L2104.68 -579.426L2134.28 -602.721L2164.52 -625.173" stroke="white" stroke-miterlimit="10"/>
<path d="M-489.602 1050.25L-449.478 1040.68L-409.146 1031.37L-368.793 1022.1L-328.623 1012.59L-288.838 1002.57L-249.632 991.798L-211.175 980.052L-173.609 967.145L-137.042 952.936L-101.537 937.343L-67.1442 920.301L-33.8744 901.796L-1.74374 881.807L29.2634 860.353L59.1994 837.504L88.1639 813.389L116.307 788.204L143.812 762.187L170.865 735.581L197.651 708.628L224.349 681.56L251.133 654.604L278.161 627.964L305.565 601.816L333.445 576.288L361.859 551.456L390.304 526.663L419.161 502.409L447.91 478.013L476.433 453.323L504.661 428.248L532.579 402.77L560.231 376.945L587.682 350.857L615.188 324.841L642.873 299.06L671 273.853L699.841 249.577L729.649 226.561L760.608 205.045L792.801 185.137L826.231 166.841L860.844 150.086L896.53 134.728L933.113 120.541L970.284 107.118L1007.61 93.9049L1044.64 80.2976L1080.94 65.7313L1116.14 49.7401L1149.99 31.9981L1182.38 12.3423L1213.3 -9.21996L1242.89 -32.5177L1271.4 -57.2335L1299.15 -82.9308L1326.54 -109.089L1354.02 -135.144L1382.01 -160.532L1410.89 -184.753L1440.96 -207.428L1472.42 -228.289L1505.36 -247.231L1539.76 -264.26L1575.54 -279.495L1612.54 -293.14L1650.55 -305.471L1689.29 -316.847L1728.39 -327.745L1767.44 -338.729L1805.96 -350.386L1843.55 -363.269L1879.83 -377.85L1914.54 -394.481L1947.52 -413.361L1978.75 -434.523L2008.94 -457.039L2037.64 -481.501L2065.84 -506.615L2093.88 -531.925L2122.11 -556.998L2150.82 -581.455L2180.22 -604.995" stroke="white" stroke-miterlimit="10"/>
<path d="M-463.41 1084.15L-423.515 1074.28L-383.377 1064.72L-343.19 1055.23L-303.164 1045.52L-263.513 1035.33L-224.439 1024.39L-186.123 1012.46L-148.715 999.344L-112.332 984.894L-77.0566 969.001L-42.9356 951.605L-9.99198 932.674L21.7688 912.202L52.3713 890.221L81.8854 866.823L110.432 842.164L138.181 816.465L165.335 789.991L192.103 763.014L218.69 735.802L245.293 708.61L272.096 681.68L299.265 655.225L326.933 629.421L355.195 604.391L384.097 580.195L413.106 556.137L442.596 532.706L472.017 509.187L501.223 485.387L529.914 460.915L558.531 436.347L586.78 411.301L614.758 385.9L642.621 360.35L670.584 334.931L698.903 309.975L727.85 285.837L757.684 262.855L788.604 241.288L820.705 221.259L853.994 202.779L888.423 185.784L923.888 170.137L960.224 155.627L997.161 141.899L1034.3 128.431L1071.18 114.636L1107.38 99.9502L1142.54 83.8988L1176.38 66.1399L1208.77 46.4912L1239.71 24.9395L1269.29 1.63607L1297.77 -23.1193L1325.45 -48.9047L1352.73 -75.2102L1380.04 -101.478L1407.81 -127.148L1436.43 -151.711L1466.21 -174.774L1497.34 -196.062L1529.94 -215.447L1564 -232.915L1599.47 -248.563L1636.18 -262.579L1673.95 -275.225L1712.48 -286.87L1751.4 -298.016L1790.26 -309.24L1828.6 -321.14L1865.99 -334.281L1902.06 -349.142L1936.53 -366.082L1969.24 -385.31L2000.17 -406.865L2029.42 -430.612L2057.96 -455.276L2085.34 -481.46L2112.54 -507.865L2139.93 -534.033L2167.82 -559.559L2196.45 -584.109" stroke="white" stroke-miterlimit="10"/>
<path d="M-437.089 1118.21L-397.475 1107.96L-357.593 1098.07L-317.639 1088.28L-277.83 1078.29L-238.384 1067.83L-199.512 1056.62L-161.403 1044.42L-124.214 1031.02L-88.0703 1016.26L-53.0572 1000.03L-19.2288 982.248L13.3907 962.895L44.7994 941.964L75.0301 919.499L104.167 895.609L132.35 870.475L159.762 844.338L186.623 817.484L213.164 790.211L239.607 762.811L266.164 735.56L293.031 708.712L320.375 682.486L348.332 657.059L376.989 632.543L406.381 608.986L435.96 585.671L465.716 562.587L495.859 540.008L525.783 517.143L555.361 493.828L584.532 469.982L613.301 445.612L641.743 420.817L670.002 395.783L698.28 370.773L726.822 346.108L755.902 322.143L785.782 299.222L816.675 277.619L848.688 257.477L881.837 238.812L916.078 221.572L951.315 205.629L987.391 190.78L1024.06 176.708L1060.97 162.935L1097.66 148.895L1133.73 134.03L1168.79 117.857L1202.57 100.021L1234.93 80.3213L1265.82 58.725L1295.37 35.3636L1323.77 10.519L1351.35 -15.402L1378.48 -41.9008L1405.6 -68.4272L1433.12 -94.4231L1461.44 -119.374L1490.88 -142.871L1521.65 -164.629L1553.88 -184.496L1587.58 -202.437L1622.71 -218.527L1659.12 -232.933L1696.64 -245.909L1734.96 -257.836L1773.68 -269.23L1812.37 -280.68L1850.55 -292.791L1887.78 -306.131L1923.7 -321.19L1958.01 -338.335L1990.56 -357.786L2021.29 -379.593L2050.32 -403.629L2077.86 -429.6L2105.14 -455.907L2131.62 -483.261L2158.27 -510.389L2185.42 -536.864L2213.33 -562.351" stroke="white" stroke-miterlimit="10"/>
<path d="M-410.7 1152.36L-371.421 1141.68L-331.855 1131.38L-292.2 1121.19L-252.674 1110.84L-213.502 1100.02L-174.898 1088.46L-137.058 1075.91L-100.145 1062.15L-64.2876 1047.02L-29.5768 1030.39L3.93412 1012.2L36.2229 992.414L67.2923 971.041L97.1811 948.131L125.985 923.806L153.854 898.264L180.987 871.763L207.616 844.607L233.989 817.115L260.344 789.6L286.905 762.354L313.876 735.642L341.429 709.689L369.697 684.667L398.76 660.68L428.332 637.356L458.466 614.765L489.167 592.914L519.871 571.064L550.383 548.966L580.561 526.431L610.319 503.351L639.644 479.706L668.591 455.568L697.284 431.1L725.912 406.547L754.713 382.219L783.956 358.466L813.906 335.636L844.789 314.019L876.724 293.775L909.735 274.932L943.79 257.449L978.799 241.208L1014.61 226.013L1051 211.572L1087.64 197.455L1124.11 183.121L1160 168.022L1194.92 151.672L1228.6 133.704L1260.88 113.902L1291.7 92.2119L1321.17 68.7464L1349.47 43.7689L1376.91 17.6709L1403.87 -9.06142L1430.75 -35.8856L1457.99 -62.2472L1485.98 -87.6272L1515.06 -111.602L1545.44 -133.871L1577.26 -154.261L1610.57 -172.711L1645.34 -189.273L1681.43 -204.095L1718.68 -217.422L1756.77 -229.648L1795.3 -241.297L1833.82 -252.961L1871.87 -265.248L1908.99 -278.731L1944.82 -293.904L1979.06 -311.146L2011.53 -330.689L2042.19 -352.6L2071.12 -376.766L2098.53 -402.906L2125.35 -429.806L2151.23 -457.943L2177.26 -485.874L2203.79 -513.161L2231.08 -539.463" stroke="white" stroke-miterlimit="10"/>
<path d="M-384.255 1186.6L-345.36 1175.42L-306.167 1164.63L-266.872 1153.97L-227.694 1143.16L-188.859 1131.91L-150.584 1119.92L-113.069 1106.95L-76.4807 1092.77L-40.9529 1077.2L-6.57827 1060.13L26.5893 1041.5L58.5324 1021.26L89.2641 999.448L118.832 976.119L147.337 951.406L174.939 925.516L201.846 898.721L228.3 871.336L254.561 843.699L280.88 816.138L307.492 788.959L334.607 762.435L362.258 736.608L390.792 711.933L420.184 688.375L450.451 665.956L481.07 643.998L512.292 622.824L543.568 601.72L574.689 580.415L605.49 558.693L635.867 536.417L665.781 513.54L695.268 490.106L724.433 466.252L753.449 442.204L782.543 418.259L811.98 394.759L842.028 372.056L872.92 350.452L904.79 330.123L937.674 311.114L971.55 293.398L1006.34 276.867L1041.88 261.328L1077.98 246.507L1114.33 232.017L1150.55 217.35L1186.22 201.971L1220.97 185.396L1254.52 167.249L1286.68 147.297L1317.4 125.47L1346.75 101.859L1374.92 76.7103L1402.2 50.3982L1428.95 23.3965L1455.58 -3.76123L1482.51 -30.5246L1510.14 -56.3722L1538.82 -80.8661L1568.77 -103.689L1600.16 -124.64L1633.06 -143.635L1667.43 -160.704L1703.19 -175.97L1740.14 -189.675L1777.99 -202.221L1816.32 -214.134L1854.68 -226.002L1892.62 -238.433L1929.68 -252.001L1965.48 -267.206L1999.73 -284.438L2032.23 -303.945L2062.92 -325.81L2091.87 -349.943L2119.28 -376.082L2145.48 -403.808L2171.45 -431.815L2197.02 -460.357L2223.01 -488.345L2249.79 -515.302" stroke="white" stroke-miterlimit="10"/>
<path d="M-357.791 1220.86L-319.329 1209.12L-280.562 1197.77L-241.684 1186.57L-202.912 1175.23L-164.472 1163.46L-126.581 1150.98L-89.4393 1137.52L-53.2193 1122.85L-18.056 1106.81L15.9551 1089.27L48.7603 1070.16L80.3457 1049.46L110.735 1027.2L139.989 1003.46L168.219 978.393L195.591 952.204L222.318 925.174L248.648 897.627L274.849 869.913L301.171 842.354L327.852 815.265L355.087 788.897L383.042 763.468L411.842 739.138L441.56 716.006L472.214 694.092L503.322 672.769L535.064 652.273L566.92 631.926L598.663 611.431L630.109 590.547L661.128 569.11L691.662 547.04L721.722 524.352L751.394 501.159L780.834 477.663L810.258 454.147L839.922 430.944L870.098 408.408L901.024 386.848L932.849 366.46L965.624 347.309L999.337 329.38L1033.91 312.575L1069.21 296.705L1105.01 281.506L1141.07 266.624L1177.01 251.597L1212.43 235.903L1246.98 219.063L1280.36 200.697L1312.38 180.556L1342.96 158.554L1372.18 134.764L1400.19 109.41L1427.28 82.8529L1453.8 55.5513L1480.15 28.0293L1506.74 0.832576L1533.99 -25.5165L1562.24 -50.5676L1591.74 -73.9812L1622.67 -95.5322L1655.12 -115.111L1689.08 -132.72L1724.47 -148.463L1761.11 -162.578L1798.69 -175.468L1836.81 -187.654L1875.03 -199.719L1912.87 -212.264L1949.91 -225.864L1985.75 -241.023L2020.08 -258.141L2052.71 -277.483L2083.55 -299.155L2112.65 -323.093L2140.19 -349.061L2166.48 -376.664L2191.91 -405.377L2217.53 -433.855L2243.16 -462.314L2269.55 -489.781" stroke="white" stroke-miterlimit="10"/>
<path d="M-331.322 1255.12L-293.336 1242.76L-255.043 1230.8L-216.633 1218.99L-178.32 1207.05L-140.325 1194.7L-102.865 1181.66L-66.1416 1167.65L-30.3268 1152.46L4.44184 1135.91L38.0672 1117.86L70.4951 1098.26L101.715 1077.08L131.761 1054.38L160.707 1030.24L188.675 1004.83L215.839 978.367L242.419 951.145L268.665 923.489L294.845 895.747L321.207 868.241L347.975 841.265L375.349 815.078L403.497 789.9L432.548 765.898L462.578 743.171L493.603 721.74L525.19 701.042L557.447 681.217L589.883 661.625L622.255 641.949L654.358 621.923L686.04 601.348L717.218 580.117L747.879 558.213L778.09 535.721L807.987 512.821L837.774 489.778L867.7 466.917L898.035 444.587L929.022 423.107L960.828 402.694L993.519 383.434L1027.09 365.321L1061.47 348.266L1096.53 332.088L1132.06 316.526L1167.81 301.257L1203.46 285.844L1238.63 269.811L1272.95 252.677L1306.13 234.057L1337.98 213.695L1368.4 191.485L1397.46 167.483L1425.29 141.896L1452.17 115.065L1478.43 87.4349L1504.48 59.5197L1530.73 31.8597L1557.57 4.97748L1585.36 -20.6664L1614.38 -44.7086L1644.82 -66.8976L1676.79 -87.0973L1710.3 -105.284L1745.3 -121.538L1781.6 -136.097L1818.9 -149.358L1856.8 -161.828L1894.87 -174.083L1932.65 -186.717L1969.7 -200.298L2005.63 -215.337L2040.12 -232.244L2072.97 -251.302L2104.06 -272.642L2133.43 -296.231L2161.23 -321.865L2187.74 -349.178L2213.35 -377.66L2238.79 -406.374L2264.18 -435.138L2290.3 -462.964" stroke="white" stroke-miterlimit="10"/>
<path d="M-304.842 1289.41L-267.372 1276.37L-229.596 1263.74L-191.699 1251.26L-153.889 1238.67L-116.383 1225.68L-79.3953 1212.02L-43.1253 1197.42L-7.74576 1181.66L26.6048 1164.57L59.8279 1146L91.8692 1125.89L122.722 1104.24L152.429 1081.09L181.079 1056.57L208.803 1030.84L235.784 1004.14L262.245 976.761L288.439 949.036L314.617 921.292L341.02 893.84L367.871 866.972L395.372 840.951L423.699 816.005L452.983 792.307L483.305 769.961L514.68 748.986L546.733 728.895L579.494 709.726L612.506 690.884L645.509 672.03L678.277 652.871L710.637 633.18L742.48 612.814L773.769 591.728L804.548 569.977L834.935 547.716L865.121 525.192L895.345 502.719L925.874 480.642L956.956 459.286L988.778 438.893L1021.42 419.567L1054.88 401.312L1089.1 384.044L1123.95 367.59L1159.22 351.696L1194.68 336.042L1230.03 320.241L1264.93 303.86L1299.01 286.413L1331.98 267.518L1363.64 246.91L1393.89 224.47L1422.76 200.234L1450.4 174.392L1477.05 147.266L1503.05 119.288L1528.78 90.959L1554.65 62.8137L1581.06 35.3746L1608.38 9.11119L1636.89 -15.59L1666.82 -38.45L1698.29 -59.3055L1731.33 -78.1039L1765.91 -94.9079L1801.84 -109.946L1838.83 -123.602L1876.51 -136.372L1914.43 -148.814L1952.16 -161.512L1989.26 -175.031L2025.33 -189.883L2060.06 -206.488L2093.21 -225.151L2124.66 -246.028L2154.41 -269.121L2182.58 -294.261L2209.47 -321.089L2235.32 -349.256L2260.67 -378.08L2286.22 -406.638L2312.18 -434.666" stroke="white" stroke-miterlimit="10"/>
<path d="M-278.365 1323.7L-241.444 1309.95L-204.223 1296.6L-166.877 1283.4L-129.608 1270.1L-92.6278 1256.43L-56.1462 1242.11L-20.3597 1226.88L14.5595 1210.52L48.4724 1192.86L81.2797 1173.75L112.927 1153.13L143.414 1131L172.793 1107.42L201.161 1082.53L228.662 1056.51L255.484 1029.6L281.854 1002.11L308.012 974.336L334.192 946.595L360.63 919.188L387.55 892.41L415.161 866.532L443.644 841.79L473.138 818.365L503.726 796.366L535.426 775.815L567.922 756.3L601.169 737.765L634.745 719.657L668.374 701.62L701.811 683.331L734.857 664.533L767.378 645.051L799.314 624.809L830.687 603.831L861.594 582.248L892.211 560.285L922.768 538.245L953.526 516.466L984.742 495.285L1016.62 474.965L1049.25 455.625L1082.64 437.277L1116.73 419.843L1151.4 403.157L1186.45 386.969L1221.64 370.968L1256.71 354.803L1291.32 338.043L1325.16 320.277L1357.91 301.093L1389.36 280.223L1419.42 257.533L1448.1 233.046L1475.53 206.931L1501.94 179.494L1527.66 151.149L1553.06 122.388L1578.54 93.7371L1604.51 65.7198L1631.33 38.8143L1659.32 13.427L1688.71 -10.1351L1719.64 -31.68L1752.19 -51.1262L1786.32 -68.517L1821.86 -84.0683L1858.52 -98.1476L1895.96 -111.23L1933.74 -123.859L1971.43 -136.603L2008.61 -150.022L2044.87 -164.628L2079.89 -180.853L2113.42 -199.021L2145.31 -219.319L2175.55 -241.782L2204.21 -266.287L2231.53 -292.55L2257.8 -320.171L2283.48 -348.561L2309.03 -377.126L2335.08 -405.039" stroke="white" stroke-miterlimit="10"/>
<path d="M-251.858 1358.02L-215.517 1343.52L-178.881 1329.39L-142.119 1315.44L-105.423 1301.4L-68.9981 1287L-33.0501 1271.98L2.22829 1256.09L36.6665 1239.11L70.1254 1220.85L102.506 1201.19L133.757 1180.05L163.886 1157.45L192.949 1133.47L221.056 1108.23L248.356 1081.95L275.046 1054.87L301.345 1027.29L327.471 999.474L353.648 971.728L380.107 944.349L407.078 917.636L434.776 891.871L463.39 867.301L493.067 844.114L523.895 822.426L555.891 802.261L588.799 783.284L622.51 765.352L656.632 747.957L690.876 730.72L724.975 713.294L758.708 695.392L791.916 676.806L824.515 657.426L856.501 637.247L887.955 616.375L919.034 595.015L949.957 573.452L980.98 552.019L1012.37 531.069L1044.35 510.881L1077.02 491.588L1110.38 473.207L1144.39 455.664L1178.92 438.797L1213.78 422.364L1248.74 406.061L1283.54 389.545L1317.9 372.457L1351.46 354.337L1383.99 334.863L1415.24 313.722L1445.1 290.773L1473.57 266.022L1500.78 239.621L1526.95 211.859L1552.37 183.135L1577.43 153.926L1602.51 124.755L1628.02 96.1425L1654.34 68.5775L1681.79 42.4833L1710.62 18.1927L1741 -4.07234L1773.02 -24.2001L1806.67 -42.2143L1841.79 -58.3131L1878.11 -72.8421L1915.29 -86.2543L1952.93 -99.0716L1990.6 -111.848L2027.87 -125.136L2064.36 -139.447L2099.73 -155.225L2133.7 -172.812L2166.12 -192.429L2196.92 -214.148L2226.18 -237.878L2254.04 -263.438L2280.83 -290.383L2306.94 -318.214L2332.81 -346.359L2358.95 -374.16" stroke="white" stroke-miterlimit="10"/>
<path d="M-225.288 1392.42L-189.551 1377.13L-153.527 1362.21L-117.375 1347.46L-81.2771 1332.64L-45.433 1317.49L-10.0416 1301.74L24.7079 1285.17L58.647 1267.53L91.6376 1248.66L123.585 1228.43L154.444 1206.79L184.225 1183.74L212.993 1159.37L240.86 1133.82L267.987 1107.31L294.568 1080.09L320.804 1052.42L346.894 1024.56L373.055 996.796L399.518 969.422L426.516 942.746L454.276 917.062L482.995 892.627L512.826 869.641L543.862 848.225L576.124 828.406L609.408 809.919L643.555 792.555L678.2 775.841L713.04 759.381L747.79 742.803L782.205 725.789L816.102 708.1L849.371 689.594L881.987 670.236L914.009 650.104L945.577 629.382L976.9 608.339L1008.22 587.297L1039.84 566.644L1071.98 546.656L1104.73 527.477L1138.12 509.128L1172.09 491.539L1206.53 474.553L1241.25 457.933L1276.02 441.383L1310.58 424.566L1344.68 407.134L1378 388.694L1410.31 368.939L1441.35 347.53L1471.01 324.318L1499.28 299.297L1526.26 272.603L1552.17 244.507L1577.3 215.393L1602 185.727L1626.68 156.023L1651.72 126.804L1677.52 98.5665L1704.41 71.7506L1732.67 46.7104L1762.48 23.6986L1793.96 2.85754L1827.1 -15.8143L1861.77 -32.4932L1897.73 -47.4987L1934.64 -61.2579L1972.13 -74.2697L2009.78 -87.0714L2047.17 -100.205L2083.92 -114.182L2119.67 -129.458L2154.14 -146.396L2187.14 -165.246L2218.61 -186.105L2248.51 -209.005L2277.02 -233.7L2304.42 -259.855L2331.05 -287.013L2357.32 -314.635L2383.68 -342.147" stroke="white" stroke-miterlimit="10"/>
<path d="M-198.662 1426.9L-163.552 1410.79L-128.162 1395.05L-92.64 1379.48L-57.1624 1363.85L-21.9242 1347.91L12.8912 1331.41L47.0951 1314.12L80.5212 1295.82L113.037 1276.33L144.553 1255.54L175.031 1233.4L204.483 1209.92L232.977 1185.19L260.634 1159.37L287.616 1132.68L314.104 1105.34L340.276 1077.58L366.321 1049.66L392.45 1021.85L418.896 994.458L445.9 967.79L473.697 942.155L502.494 917.82L532.45 894.997L563.664 873.813L596.159 854.299L629.779 836.249L664.329 819.411L699.468 803.34L734.88 787.626L770.262 771.871L805.347 755.731L839.928 738.933L873.872 721.305L907.128 702.782L939.736 683.414L971.82 663.363L1003.57 642.881L1035.28 622.337L1067.14 601.994L1099.48 582.277L1132.38 563.285L1165.85 545.041L1199.84 527.478L1234.24 510.441L1268.86 493.699L1303.49 476.964L1337.87 459.907L1371.74 442.187L1404.86 423.474L1436.93 403.406L1467.77 381.741L1497.23 358.273L1525.29 332.983L1552.05 305.996L1577.7 277.564L1602.53 248.057L1626.88 217.929L1651.14 187.688L1675.72 157.857L1701 128.943L1727.33 101.396L1755 75.5941L1784.22 51.8153L1815.13 30.2343L1847.74 10.874L1881.95 -6.41478L1917.52 -21.9225L1954.15 -36.0473L1991.48 -49.2632L2029.11 -62.0884L2066.64 -75.0537L2103.66 -88.6715L2139.82 -103.405L2174.84 -119.64L2208.48 -137.657L2240.63 -157.616L2271.28 -179.542L2300.53 -203.28L2328.61 -228.547L2355.83 -254.936L2382.58 -281.938L2409.28 -308.997" stroke="white" stroke-miterlimit="10"/>
<path d="M-171.932 1461.51L-137.467 1444.56L-102.742 1427.96L-67.8824 1411.52L-33.0487 1395.05L1.57462 1378.31L35.7988 1361.05L69.4442 1343.03L102.352 1324.05L134.397 1303.95L165.494 1282.62L195.608 1260L224.755 1236.12L253.005 1211.08L280.481 1185.02L307.342 1158.17L333.744 1130.71L359.846 1102.87L385.829 1074.87L411.906 1046.99L438.313 1019.55L465.3 992.855L493.109 967.234L521.954 942.964L552.006 920.266L583.367 899.273L616.063 880.019L649.975 862.35L684.891 845.99L720.489 830.518L756.443 815.508L792.431 800.544L828.167 785.251L863.421 769.33L898.034 752.575L931.936 734.893L965.145 716.308L997.766 696.956L1029.98 677.074L1062.07 657.036L1094.26 637.118L1126.86 617.744L1159.96 599.016L1193.57 580.954L1227.64 563.492L1262.06 546.478L1296.64 529.686L1331.18 512.833L1365.43 495.601L1399.13 477.657L1432.04 458.679L1463.93 438.377L1494.56 416.439L1523.84 392.729L1551.7 367.181L1578.24 339.904L1603.63 311.138L1628.16 281.238L1652.15 250.648L1676 219.87L1700.11 189.427L1724.87 159.833L1750.64 131.552L1777.71 104.979L1806.34 80.4195L1836.66 58.0766L1868.73 38.0012L1902.44 20.0749L1937.61 4.03978L1973.94 -10.4709L2011.11 -23.9043L2048.71 -36.758L2086.37 -49.5512L2123.68 -62.7945L2160.28 -76.9605L2195.86 -92.4555L2230.18 -109.592L2263.08 -128.582L2294.52 -149.473L2324.56 -172.183L2353.38 -196.486L2381.25 -222.023L2408.54 -248.325L2435.65 -274.852" stroke="white" stroke-miterlimit="10"/>
<path d="M-145.119 1496.23L-111.342 1478.39L-77.2948 1460.89L-43.1052 1443.59L-8.9297 1426.26L25.058 1408.69L58.6797 1390.64L91.7648 1371.9L124.162 1352.25L155.752 1331.56L186.452 1309.71L216.231 1286.65L245.104 1262.42L273.145 1237.1L300.474 1210.85L327.231 1183.86L353.547 1156.3L379.568 1128.35L405.473 1100.25L431.477 1072.27L457.823 1044.75L484.768 1018L512.563 992.364L541.432 968.124L571.55 945.512L603.027 924.67L635.89 905.635L670.049 888.288L705.292 872.353L741.309 857.427L777.767 843.074L814.329 828.858L850.69 814.38L886.598 799.312L921.873 783.418L956.42 766.576L990.237 748.784L1023.41 730.157L1056.11 710.908L1088.64 691.431L1121.2 672.008L1154.13 653.053L1187.49 634.665L1221.3 616.863L1255.51 599.58L1290 582.666L1324.6 565.899L1359.11 549.002L1393.27 531.665L1426.85 513.565L1459.61 494.387L1491.32 473.847L1521.78 451.687L1550.89 427.762L1578.57 401.972L1604.89 374.417L1630.04 345.325L1654.27 315.039L1677.91 283.992L1701.35 252.683L1725 221.635L1749.24 191.364L1774.44 162.35L1800.92 135.003L1828.94 109.653L1858.67 86.533L1890.17 65.7211L1923.38 47.1333L1958.12 30.5471L1994.14 15.6289L2031.12 1.96068L2068.7 -10.9337L2106.48 -23.5603L2144.08 -36.4274L2181.13 -50.0164L2217.29 -64.7523L2252.3 -80.9901L2285.98 -98.9608L2318.24 -118.776L2349.11 -140.409L2378.72 -163.691L2407.29 -188.312L2435.17 -213.843L2462.75 -239.767" stroke="white" stroke-miterlimit="10"/>
<path d="M-118.241 1531.03L-85.1654 1512.28L-51.8233 1493.86L-18.3307 1475.65L15.1685 1457.44L48.5126 1439.03L81.5336 1420.2L114.069 1400.74L145.976 1380.46L177.137 1359.21L207.474 1336.88L236.955 1313.44L265.597 1288.9L293.47 1263.37L320.684 1236.97L347.35 1209.86L373.577 1182.18L399.506 1154.11L425.315 1125.88L451.225 1097.79L477.487 1070.15L504.368 1043.32L532.126 1017.64L560.993 993.394L591.15 970.833L622.712 950.102L655.709 931.242L690.072 914.16L725.598 898.593L761.99 884.156L798.909 870.404L836.007 856.887L872.961 843.181L909.498 828.933L945.418 813.879L980.604 797.87L1015.04 780.878L1048.78 762.993L1081.99 744.409L1114.99 725.55L1147.99 706.689L1181.29 688.225L1214.97 670.254L1249.04 652.79L1283.45 635.766L1318.07 619.031L1352.76 602.366L1387.29 585.501L1421.43 568.132L1454.94 549.947L1487.6 530.638L1519.18 509.929L1549.51 487.594L1578.45 463.455L1605.97 437.451L1632.09 409.638L1657 380.236L1680.94 349.577L1704.25 318.088L1727.29 286.26L1750.48 254.618L1774.21 223.681L1798.85 193.939L1824.74 165.819L1852.15 139.676L1881.27 115.769L1912.2 94.2061L1944.88 74.9371L1979.18 57.7777L2014.88 42.4298L2051.66 28.5053L2089.19 15.5514L2127.09 3.07561L2164.97 -9.42655L2202.45 -22.444L2239.19 -36.4264L2274.91 -51.7483L2309.38 -68.689L2342.48 -87.4099L2374.2 -107.939L2404.62 -130.161L2433.93 -153.818L2462.44 -178.522L2490.54 -203.776" stroke="white" stroke-miterlimit="10"/>
</svg>
