<svg width="70" height="70" viewBox="0 0 70 70" fill="none" xmlns="http://www.w3.org/2000/svg">
<path d="M61.25 29.1667C61.25 49.5833 35 67.0833 35 67.0833C35 67.0833 8.75 49.5833 8.75 29.1667C8.75 22.2047 11.5156 15.5279 16.4384 10.6051C21.3613 5.68229 28.0381 2.91667 35 2.91667C41.9619 2.91667 48.6387 5.68229 53.5616 10.6051C58.4844 15.5279 61.25 22.2047 61.25 29.1667Z" fill="#008ECF"/>
<path d="M35 37.9167C39.8325 37.9167 43.75 33.9992 43.75 29.1667C43.75 24.3342 39.8325 20.4167 35 20.4167C30.1675 20.4167 26.25 24.3342 26.25 29.1667C26.25 33.9992 30.1675 37.9167 35 37.9167Z" fill="white" stroke="white" stroke-width="2" stroke-linecap="round" stroke-linejoin="round"/>
</svg>
