<svg version="1.1" xmlns="http://www.w3.org/2000/svg" xmlns:xlink="http://www.w3.org/1999/xlink">

    <symbol viewBox="0 0 106 47" id="logo">
        <path d="M27.9404 32.8152L27.8999 12.5208L17.8939 29.3159H15.3701L5.35599 12.7819V32.8152H0V2.19421H4.65809L16.7091 22.4478L28.6302 2.19421H33.2396L33.3289 32.807H27.9323L27.9404 32.8152Z" fill="#003E5B" />
        <path d="M92.203 32.8152L81.9779 9.19283L71.8421 32.8152H65.707L79.024 2.19421H84.591L97.8592 32.807H92.203V32.8152Z" fill="#003E5B" />
        <path d="M37.0391 2.19421H42.6061V23.9323L58.9743 2.19421H64.241V32.8152H58.674V11.1179L42.3139 32.8152H37.0472V2.19421H37.0391Z" fill="#003E5B" />
        <path d="M81.783 27.6273C84.2391 27.6273 86.2301 25.6261 86.2301 23.1574C86.2301 20.6887 84.2391 18.6874 81.783 18.6874C79.327 18.6874 77.3359 20.6887 77.3359 23.1574C77.3359 25.6261 79.327 27.6273 81.783 27.6273Z" fill="#008ECF" />
        <path d="M59.93 37.277C65.0506 47.7668 78.3838 41.7551 85.2087 36.2492C92.8531 30.3192 102.843 18.1654 100.579 7.89588C100.465 7.30043 100.141 6.68866 99.9133 6.13399C99.7672 5.88113 99.3209 5.23673 99.1829 4.99203C97.9738 3.44222 96.3508 2.46339 94.3463 1.82715C92.7395 1.31327 90.9785 1.1175 89.1689 1.03594C90.0128 0.70966 90.8974 0.47311 91.8063 0.285501C99.7591 -1.34588 105.854 4.42104 105.975 12.3903C106.146 16.379 105.091 20.3514 103.492 23.965C98.339 35.148 87.7974 44.6264 75.5111 46.7227C68.7674 47.9544 60.4088 45.1321 59.9219 37.277H59.93Z" fill="#008ECF" />
    </symbol>

    <symbol viewBox="0 0 21 21" id="header-location">
        <path d="M0 9.94737L21 0L11.0526 21L8.8421 12.1579L0 9.94737Z" />
    </symbol>

    <symbol viewBox="0 0 16 16" id="header-location-active">
        <circle cx="8" cy="8" r="8" fill="#008ECF" />
        <path d="M11.2008 5.59998L6.80078 10.4L4.80078 8.21816" stroke="white" stroke-width="1.6" stroke-linecap="round" stroke-linejoin="round" />
    </symbol>

    <symbol viewBox="0 0 31 30" id="header-user">
        <path d="M25.5 26.25V23.75C25.5 22.4239 24.9732 21.1521 24.0355 20.2145C23.0979 19.2768 21.8261 18.75 20.5 18.75H10.5C9.17392 18.75 7.90215 19.2768 6.96447 20.2145C6.02678 21.1521 5.5 22.4239 5.5 23.75V26.25" stroke-width="2.5" stroke-linecap="round" stroke-linejoin="round" />
        <path d="M15.5 13.75C18.2614 13.75 20.5 11.5114 20.5 8.75C20.5 5.98858 18.2614 3.75 15.5 3.75C12.7386 3.75 10.5 5.98858 10.5 8.75C10.5 11.5114 12.7386 13.75 15.5 13.75Z" stroke-width="2.5" stroke-linecap="round" stroke-linejoin="round" />
    </symbol>

    <symbol viewBox="0 0 37 36" id="header-search">
        <path d="M17 28.5C23.6274 28.5 29 23.1274 29 16.5C29 9.87258 23.6274 4.5 17 4.5C10.3726 4.5 5 9.87258 5 16.5C5 23.1274 10.3726 28.5 17 28.5Z" stroke-width="3" stroke-linecap="round" stroke-linejoin="round" />
        <path d="M31.9996 31.5001L25.4746 24.9751" stroke-width="3" stroke-linecap="round" stroke-linejoin="round" />
    </symbol>

    <symbol viewBox="0 0 27 27" id="header-nav">
        <rect x="6.9668" y="10.8124" width="1.74194" height="9.58065" transform="rotate(-45 6.9668 10.8124)" />
        <rect x="13.7402" y="17.5869" width="1.74194" height="9.58065" transform="rotate(-135 13.7402 17.5869)" />
    </symbol>

    <symbol viewBox="0 0 65 65" id="main-prefs-1">
        <path d="M17.7277 47.2731C17.5727 47.2771 17.4189 47.2447 17.2786 47.1785C17.0628 47.0899 16.8781 46.9393 16.7477 46.7458C16.6173 46.5523 16.5471 46.3246 16.5459 46.0913V24.5585C16.5628 23.7996 16.729 23.0513 17.0352 22.3566C17.3413 21.6619 17.7813 21.0344 18.3301 20.5097C18.8788 19.9851 19.5255 19.5738 20.2333 19.2992C20.9411 19.0246 21.696 18.8922 22.455 18.9095H41.3641C42.1231 18.8922 42.878 19.0246 43.5858 19.2992C44.2935 19.5738 44.9403 19.9851 45.489 20.5097C46.0378 21.0344 46.4778 21.6619 46.7839 22.3566C47.09 23.0513 47.2563 23.7996 47.2732 24.5585V35.7149C47.2563 36.4739 47.09 37.2221 46.7839 37.9168C46.4778 38.6115 46.0378 39.2391 45.489 39.7637C44.9403 40.2883 44.2935 40.6997 43.5858 40.9742C42.878 41.2488 42.1231 41.3813 41.3641 41.364H24.1214L18.5668 46.9304C18.4564 47.0399 18.3254 47.1266 18.1814 47.1854C18.0374 47.2442 17.8833 47.274 17.7277 47.2731ZM22.455 21.2731C21.5498 21.2411 20.6688 21.5687 20.0044 22.1844C19.3401 22.8 18.9464 23.6536 18.9095 24.5585V43.2431L22.7977 39.3431C22.9081 39.2336 23.0391 39.1469 23.1831 39.0881C23.3271 39.0293 23.4813 38.9995 23.6368 39.0004H41.3641C42.2693 39.0323 43.1503 38.7047 43.8146 38.0891C44.479 37.4735 44.8726 36.6199 44.9095 35.7149V24.5585C44.8726 23.6536 44.479 22.8 43.8146 22.1844C43.1503 21.5687 42.2693 21.2411 41.3641 21.2731H22.455Z" />
        <path d="M31.9094 31.9091C32.8885 31.9091 33.6822 31.1154 33.6822 30.1364C33.6822 29.1573 32.8885 28.3636 31.9094 28.3636C30.9304 28.3636 30.1367 29.1573 30.1367 30.1364C30.1367 31.1154 30.9304 31.9091 31.9094 31.9091Z" />
        <path d="M38.4094 31.9091C39.3885 31.9091 40.1822 31.1154 40.1822 30.1364C40.1822 29.1573 39.3885 28.3636 38.4094 28.3636C37.4304 28.3636 36.6367 29.1573 36.6367 30.1364C36.6367 31.1154 37.4304 31.9091 38.4094 31.9091Z" />
        <path d="M25.4094 31.9091C26.3885 31.9091 27.1822 31.1154 27.1822 30.1364C27.1822 29.1573 26.3885 28.3636 25.4094 28.3636C24.4304 28.3636 23.6367 29.1573 23.6367 30.1364C23.6367 31.1154 24.4304 31.9091 25.4094 31.9091Z" />
    </symbol>

    <symbol viewBox="0 0 65 65" id="main-prefs-2">
        <path d="M37.5752 36.5803C37.3928 36.5795 37.2123 36.5426 37.0443 36.4716C36.8762 36.4006 36.7239 36.2969 36.5963 36.1667C36.3395 35.9083 36.1953 35.5589 36.1953 35.1946C36.1953 34.8304 36.3395 34.4809 36.5963 34.2226C37.109 33.7104 37.5158 33.1021 37.7934 32.4326C38.0709 31.7631 38.2138 31.0454 38.2138 30.3206C38.2138 29.5958 38.0709 28.8782 37.7934 28.2086C37.5158 27.5391 37.109 26.9308 36.5963 26.4186C36.3704 26.1549 36.2523 25.8156 36.2657 25.4686C36.2791 25.1216 36.423 24.7924 36.6686 24.5468C36.9141 24.3013 37.2433 24.1574 37.5903 24.144C37.9373 24.1306 38.2766 24.2487 38.5403 24.4745C40.0896 26.0257 40.9597 28.1283 40.9597 30.3206C40.9597 32.5129 40.0896 34.6155 38.5403 36.1667C38.2858 36.4264 37.9389 36.5751 37.5752 36.5803Z" />
        <path d="M41.4628 40.4684C41.1011 40.4668 40.7544 40.3232 40.4976 40.0685C40.2408 39.8102 40.0967 39.4607 40.0967 39.0965C40.0967 38.7322 40.2408 38.3827 40.4976 38.1244C41.5232 37.1 42.3368 35.8835 42.8919 34.5444C43.4469 33.2054 43.7327 31.77 43.7327 30.3205C43.7327 28.8709 43.4469 27.4356 42.8919 26.0965C42.3368 24.7575 41.5232 23.541 40.4976 22.5165C40.2717 22.2528 40.1537 21.9135 40.1671 21.5665C40.1805 21.2195 40.3244 20.8903 40.5699 20.6447C40.8155 20.3992 41.1446 20.2553 41.4917 20.2419C41.8387 20.2285 42.1779 20.3466 42.4417 20.5724C45.0265 23.1581 46.4786 26.6644 46.4786 30.3205C46.4786 33.9765 45.0265 37.4829 42.4417 40.0685C42.3129 40.1963 42.1601 40.2974 41.9921 40.366C41.8241 40.4346 41.6442 40.4694 41.4628 40.4684Z" />
        <path d="M27.8123 36.5803C27.4486 36.5751 27.1017 36.4264 26.8471 36.1667C25.2979 34.6155 24.4277 32.5129 24.4277 30.3206C24.4277 28.1283 25.2979 26.0257 26.8471 24.4745C27.1109 24.2487 27.4502 24.1306 27.7972 24.144C28.1442 24.1574 28.4734 24.3013 28.7189 24.5468C28.9645 24.7924 29.1083 25.1216 29.1217 25.4686C29.1351 25.8156 29.0171 26.1549 28.7912 26.4186C28.2784 26.9308 27.8716 27.5391 27.5941 28.2086C27.3165 28.8782 27.1737 29.5958 27.1737 30.3206C27.1737 31.0454 27.3165 31.7631 27.5941 32.4326C27.8716 33.1021 28.2784 33.7104 28.7912 34.2226C29.048 34.4809 29.1922 34.8304 29.1922 35.1946C29.1922 35.5589 29.048 35.9083 28.7912 36.1667C28.6635 36.2969 28.5112 36.4006 28.3432 36.4716C28.1752 36.5426 27.9947 36.5795 27.8123 36.5803Z" />
        <path d="M23.925 40.4687C23.7436 40.4698 23.5637 40.435 23.3957 40.3664C23.2277 40.2978 23.0749 40.1967 22.9461 40.0689C20.3613 37.4833 18.9092 33.9769 18.9092 30.3209C18.9092 26.6648 20.3613 23.1584 22.9461 20.5728C23.0697 20.4285 23.2218 20.3113 23.3929 20.2285C23.5639 20.1457 23.7502 20.0992 23.9401 20.0919C24.13 20.0846 24.3194 20.1166 24.4963 20.1859C24.6732 20.2552 24.8339 20.3603 24.9683 20.4947C25.1027 20.6291 25.2078 20.7898 25.2771 20.9667C25.3464 21.1436 25.3784 21.333 25.3711 21.5229C25.3638 21.7128 25.3173 21.8991 25.2345 22.0702C25.1517 22.2412 25.0345 22.3933 24.8902 22.5169C23.8646 23.5413 23.051 24.7579 22.4959 26.0969C21.9408 27.436 21.6551 28.8713 21.6551 30.3209C21.6551 31.7704 21.9408 33.2057 22.4959 34.5448C23.051 35.8839 23.8646 37.1004 24.8902 38.1248C25.147 38.3831 25.2911 38.7326 25.2911 39.0968C25.2911 39.4611 25.147 39.8106 24.8902 40.0689C24.6334 40.3236 24.2867 40.4672 23.925 40.4687Z" />
        <path d="M35.4517 30.3202C35.4517 29.5888 35.1611 28.8874 34.644 28.3703C34.1269 27.8532 33.4255 27.5626 32.6941 27.5626C31.9627 27.5626 31.2613 27.8532 30.7442 28.3703C30.2271 28.8874 29.9365 29.5888 29.9365 30.3202C29.9394 30.8014 30.0682 31.2735 30.3101 31.6896C30.552 32.1056 30.8985 32.4511 31.3153 32.6917V44.1081C31.3153 44.4738 31.4606 44.8245 31.7191 45.083C31.9777 45.3416 32.3284 45.4869 32.6941 45.4869C33.0598 45.4869 33.4105 45.3416 33.669 45.083C33.9276 44.8245 34.0729 44.4738 34.0729 44.1081V32.6917C34.4897 32.4511 34.8362 32.1056 35.0781 31.6896C35.32 31.2735 35.4488 30.8014 35.4517 30.3202Z" />
    </symbol>

    <symbol viewBox="0 0 65 65" id="main-prefs-3">
        <path d="M32.0563 23.1885C32.8824 23.1885 33.552 22.5196 33.552 21.6945C33.552 20.8694 32.8824 20.2006 32.0563 20.2006C31.2302 20.2006 30.5605 20.8694 30.5605 21.6945C30.5605 22.5196 31.2302 23.1885 32.0563 23.1885Z" />
        <path d="M34.8189 17.7089C34.0711 16.9639 33.0581 16.5455 32.0019 16.5455C30.9457 16.5455 29.9327 16.9639 29.1849 17.7089L21.2077 25.5871C20.4878 26.333 20.0872 27.3297 20.0908 28.3658V44.4707C20.0908 45.5273 20.5111 46.5406 21.2591 47.2877C22.0071 48.0348 23.0216 48.4546 24.0795 48.4546H40.034C41.0919 48.4546 42.1064 48.0348 42.8544 47.2877C43.6024 46.5406 44.0227 45.5273 44.0227 44.4707V28.3758C44.0241 27.8544 43.9207 27.338 43.7186 26.8572C43.5165 26.3765 43.2197 25.9411 42.846 25.5771L34.8189 17.7089ZM42.0283 44.4707C42.0283 44.999 41.8182 45.5056 41.4442 45.8792C41.0702 46.2528 40.563 46.4626 40.034 46.4626H24.0795C23.5506 46.4626 23.0433 46.2528 22.6693 45.8792C22.2953 45.5056 22.0852 44.999 22.0852 44.4707V28.3658C22.0843 28.1106 22.1341 27.8577 22.2317 27.6218C22.3292 27.3859 22.4726 27.1716 22.6535 26.9914L30.6308 19.1132C30.8183 18.9274 31.041 18.7807 31.2858 18.6815C31.5305 18.5823 31.7926 18.5327 32.0568 18.5356C32.3192 18.5341 32.5794 18.5843 32.8224 18.6834C33.0654 18.7826 33.2864 18.9286 33.4727 19.1132L41.4998 27.0013C41.8453 27.3753 42.0344 27.867 42.0283 28.3758V44.4707Z" />
        <path d="M36.8315 29.948L26.3614 40.4057C26.2679 40.4983 26.1937 40.6084 26.1431 40.7298C26.0925 40.8512 26.0664 40.9814 26.0664 41.1128C26.0664 41.2443 26.0925 41.3745 26.1431 41.4959C26.1937 41.6172 26.2679 41.7274 26.3614 41.82C26.4541 41.9133 26.5643 41.9874 26.6859 42.038C26.8074 42.0886 26.9377 42.1146 27.0693 42.1146C27.201 42.1146 27.3313 42.0886 27.4528 42.038C27.5743 41.9874 27.6846 41.9133 27.7773 41.82L38.2475 31.3623C38.4353 31.1747 38.5408 30.9204 38.5408 30.6551C38.5408 30.3899 38.4353 30.1355 38.2475 29.948C38.0597 29.7605 37.8051 29.6551 37.5395 29.6551C37.274 29.6551 37.0193 29.7605 36.8315 29.948Z" />
        <path d="M28.5667 35.6357C29.1583 35.6357 29.7367 35.4605 30.2286 35.1322C30.7206 34.8039 31.104 34.3372 31.3304 33.7913C31.5569 33.2453 31.6161 32.6445 31.5007 32.0649C31.3852 31.4853 31.1003 30.9529 30.682 30.5351C30.2636 30.1172 29.7306 29.8326 29.1503 29.7173C28.57 29.602 27.9685 29.6612 27.4219 29.8874C26.8753 30.1135 26.4081 30.4965 26.0793 30.9878C25.7506 31.4792 25.5752 32.0569 25.5752 32.6478C25.5752 33.4403 25.8904 34.2003 26.4514 34.7606C27.0124 35.3209 27.7733 35.6357 28.5667 35.6357ZM28.5667 31.6519C28.7639 31.6519 28.9567 31.7103 29.1207 31.8197C29.2846 31.9291 29.4125 32.0847 29.4879 32.2667C29.5634 32.4487 29.5831 32.6489 29.5447 32.8421C29.5062 33.0353 29.4112 33.2128 29.2718 33.3521C29.1323 33.4914 28.9546 33.5862 28.7612 33.6247C28.5678 33.6631 28.3673 33.6434 28.1851 33.568C28.0029 33.4926 27.8471 33.3649 27.7376 33.2012C27.628 33.0374 27.5695 32.8448 27.5695 32.6478C27.5695 32.3837 27.6746 32.1304 27.8616 31.9436C28.0486 31.7568 28.3022 31.6519 28.5667 31.6519Z" />
        <path d="M35.5471 36.6295C34.9555 36.6295 34.3771 36.8047 33.8852 37.133C33.3932 37.4613 33.0098 37.928 32.7834 38.4739C32.557 39.0199 32.4977 39.6207 32.6131 40.2003C32.7286 40.7799 33.0135 41.3123 33.4318 41.7301C33.8502 42.148 34.3832 42.4326 34.9635 42.5479C35.5438 42.6632 36.1453 42.604 36.6919 42.3778C37.2386 42.1517 37.7058 41.7687 38.0345 41.2774C38.3632 40.786 38.5386 40.2083 38.5386 39.6174C38.5386 38.8249 38.2234 38.0649 37.6624 37.5046C37.1014 36.9443 36.3405 36.6295 35.5471 36.6295ZM35.5471 40.6133C35.3499 40.6133 35.1571 40.5549 34.9932 40.4455C34.8292 40.3361 34.7014 40.1805 34.6259 39.9985C34.5504 39.8165 34.5307 39.6163 34.5691 39.4231C34.6076 39.2299 34.7026 39.0524 34.842 38.9131C34.9815 38.7738 35.1592 38.679 35.3526 38.6405C35.546 38.6021 35.7465 38.6218 35.9287 38.6972C36.1109 38.7726 36.2667 38.9003 36.3763 39.064C36.4858 39.2278 36.5443 39.4204 36.5443 39.6174C36.5443 39.8815 36.4392 40.1348 36.2522 40.3216C36.0652 40.5084 35.8116 40.6133 35.5471 40.6133Z" />
    </symbol>

    <symbol viewBox="0 0 65 65" id="main-prefs-4">
        <path d="M31.9088 38.8523C30.7693 38.8523 29.6554 38.5144 28.708 37.8813C27.7605 37.2482 27.0221 36.3484 26.586 35.2957C26.15 34.2429 26.0359 33.0845 26.2582 31.9669C26.4805 30.8493 27.0292 29.8227 27.8349 29.017C28.6407 28.2113 29.6672 27.6625 30.7848 27.4402C31.9024 27.2179 33.0609 27.332 34.1136 27.7681C35.1664 28.2042 36.0662 28.9426 36.6992 29.8901C37.3323 30.8375 37.6702 31.9514 37.6702 33.0909C37.6702 34.6189 37.0632 36.0843 35.9827 37.1648C34.9023 38.2453 33.4368 38.8523 31.9088 38.8523ZM31.9088 29.25C31.1492 29.25 30.4066 29.4753 29.7749 29.8973C29.1433 30.3193 28.651 30.9192 28.3603 31.621C28.0696 32.3229 27.9935 33.0952 28.1417 33.8402C28.2899 34.5853 28.6557 35.2697 29.1929 35.8068C29.7301 36.344 30.4144 36.7098 31.1595 36.858C31.9046 37.0062 32.6768 36.9301 33.3787 36.6394C34.0805 36.3487 34.6804 35.8564 35.1024 35.2248C35.5245 34.5932 35.7497 33.8506 35.7497 33.0909C35.7497 32.0722 35.3451 31.0953 34.6248 30.375C33.9044 29.6547 32.9275 29.25 31.9088 29.25Z" />
        <path d="M36.7108 47.4943H27.1085C26.0898 47.4943 25.1129 47.0897 24.3926 46.3694C23.6722 45.649 23.2676 44.6721 23.2676 43.6534V41.2048C23.2693 41.0142 23.3278 40.8283 23.4355 40.671C23.5432 40.5137 23.6954 40.392 23.8725 40.3214L27.3677 38.9195C27.4862 38.867 27.6141 38.839 27.7437 38.8372C27.8733 38.8354 28.0019 38.8599 28.1218 38.9091C28.2417 38.9583 28.3503 39.0313 28.4412 39.1237C28.5322 39.2161 28.6034 39.3259 28.6508 39.4465C28.6981 39.5672 28.7206 39.6961 28.7167 39.8257C28.7129 39.9552 28.6829 40.0826 28.6285 40.2003C28.5741 40.3179 28.4965 40.4233 28.4003 40.5102C28.3041 40.597 28.1913 40.6634 28.0687 40.7055L25.188 41.8578V43.6534C25.188 44.1628 25.3904 44.6512 25.7505 45.0114C26.1107 45.3715 26.5992 45.5739 27.1085 45.5739H36.7108C37.2201 45.5739 37.7086 45.3715 38.0687 45.0114C38.4289 44.6512 38.6312 44.1628 38.6312 43.6534V41.8578L35.7505 40.7055C35.5137 40.6113 35.324 40.4268 35.2231 40.1927C35.1223 39.9586 35.1186 39.6941 35.2128 39.4572C35.307 39.2204 35.4915 39.0307 35.7256 38.9298C35.9597 38.829 36.2243 38.8253 36.4611 38.9195L39.9563 40.3214C40.1335 40.392 40.2856 40.5137 40.3934 40.671C40.5011 40.8283 40.5595 41.0142 40.5613 41.2048V43.6534C40.5613 44.1586 40.4616 44.6589 40.268 45.1255C40.0744 45.5921 39.7906 46.016 39.4329 46.3728C39.0752 46.7295 38.6507 47.0123 38.1836 47.2047C37.7164 47.3972 37.216 47.4956 36.7108 47.4943Z" />
        <path d="M25.1879 28.2898C24.2383 28.2898 23.31 28.0082 22.5205 27.4806C21.7309 26.9531 21.1156 26.2032 20.7522 25.326C20.3888 24.4487 20.2937 23.4833 20.479 22.552C20.6642 21.6207 21.1215 20.7652 21.7929 20.0937C22.4644 19.4223 23.3199 18.965 24.2512 18.7798C25.1825 18.5945 26.1479 18.6896 27.0252 19.053C27.9025 19.4164 28.6523 20.0317 29.1799 20.8213C29.7074 21.6108 29.989 22.5391 29.989 23.4886C29.989 24.1191 29.8648 24.7435 29.6235 25.326C29.3822 25.9085 29.0286 26.4377 28.5828 26.8836C28.1369 27.3294 27.6077 27.683 27.0252 27.9243C26.4427 28.1656 25.8184 28.2898 25.1879 28.2898ZM25.1879 20.608C24.6181 20.608 24.0612 20.7769 23.5874 21.0934C23.1137 21.41 22.7445 21.8599 22.5265 22.3862C22.3084 22.9126 22.2514 23.4918 22.3625 24.0506C22.4737 24.6094 22.748 25.1227 23.1509 25.5256C23.5538 25.9285 24.0671 26.2028 24.6259 26.314C25.1847 26.4251 25.7639 26.3681 26.2902 26.15C26.8166 25.932 27.2665 25.5628 27.5831 25.0891C27.8996 24.6153 28.0685 24.0584 28.0685 23.4886C28.0685 22.7246 27.765 21.9919 27.2248 21.4517C26.6846 20.9115 25.9519 20.608 25.1879 20.608Z" />
        <path d="M24.2275 36.3461H21.3468C20.3281 36.3461 19.3511 35.9414 18.6308 35.2211C17.9105 34.5008 17.5059 33.5239 17.5059 32.5052V30.8248C17.5057 30.6325 17.5632 30.4445 17.6711 30.2853C17.779 30.1261 17.9321 30.0029 18.1108 29.9318L21.1739 28.7315C21.4072 28.6389 21.6675 28.6413 21.899 28.7382C22.1305 28.8351 22.3149 29.0189 22.4126 29.25C22.4594 29.3673 22.4826 29.4926 22.4809 29.6188C22.4792 29.7451 22.4526 29.8697 22.4026 29.9857C22.3527 30.1016 22.2804 30.2066 22.1898 30.2945C22.0992 30.3825 21.9922 30.4518 21.8749 30.4983L19.4263 31.4778V32.5052C19.4263 33.0145 19.6286 33.503 19.9888 33.8632C20.349 34.2233 20.8374 34.4257 21.3468 34.4257H24.2275C24.4821 34.4257 24.7264 34.5268 24.9064 34.7069C25.0865 34.887 25.1877 35.1312 25.1877 35.3859C25.1877 35.6405 25.0865 35.8848 24.9064 36.0649C24.7264 36.2449 24.4821 36.3461 24.2275 36.3461Z" />
        <path d="M38.6312 28.2898C37.6816 28.2898 36.7534 28.0082 35.9638 27.4806C35.1743 26.9531 34.5589 26.2032 34.1955 25.326C33.8322 24.4487 33.7371 23.4833 33.9223 22.552C34.1076 21.6207 34.5649 20.7652 35.2363 20.0937C35.9078 19.4223 36.7632 18.965 37.6946 18.7798C38.6259 18.5945 39.5912 18.6896 40.4685 19.053C41.3458 19.4164 42.0957 20.0317 42.6232 20.8213C43.1508 21.6108 43.4324 22.5391 43.4324 23.4886C43.4324 24.762 42.9265 25.9832 42.0261 26.8836C41.1257 27.7839 39.9046 28.2898 38.6312 28.2898ZM38.6312 20.608C38.0615 20.608 37.5045 20.7769 37.0308 21.0934C36.5571 21.41 36.1878 21.8599 35.9698 22.3862C35.7518 22.9126 35.6947 23.4918 35.8059 24.0506C35.917 24.6094 36.1914 25.1227 36.5943 25.5256C36.9971 25.9285 37.5104 26.2028 38.0692 26.314C38.628 26.4251 39.2072 26.3681 39.7336 26.15C40.26 25.932 40.7099 25.5628 41.0264 25.0891C41.343 24.6153 41.5119 24.0584 41.5119 23.4886C41.5119 22.7246 41.2084 21.9919 40.6682 21.4517C40.1279 20.9115 39.3952 20.608 38.6312 20.608Z" />
        <path d="M42.4718 36.3461H39.5911C39.3364 36.3461 39.0922 36.2449 38.9121 36.0648C38.732 35.8848 38.6309 35.6405 38.6309 35.3859C38.6309 35.1312 38.732 34.887 38.9121 34.7069C39.0922 34.5268 39.3364 34.4256 39.5911 34.4256H42.4718C42.9811 34.4256 43.4696 34.2233 43.8297 33.8631C44.1899 33.503 44.3922 33.0145 44.3922 32.5052V31.4777L41.9436 30.5175C41.8263 30.4709 41.7193 30.4017 41.6287 30.3137C41.5382 30.2258 41.4659 30.1208 41.4159 30.0049C41.366 29.8889 41.3394 29.7643 41.3377 29.638C41.336 29.5118 41.3591 29.3865 41.4059 29.2692C41.4982 29.0328 41.6802 28.8426 41.9123 28.74C42.1445 28.6374 42.4077 28.6309 42.6446 28.7219L45.7077 29.9222C45.8864 29.9933 46.0396 30.1165 46.1474 30.2757C46.2553 30.4349 46.3129 30.6229 46.3127 30.8152V32.4956C46.3139 33.0008 46.2155 33.5013 46.0231 33.9684C45.8306 34.4355 45.5479 34.86 45.1911 35.2177C44.8343 35.5754 44.4105 35.8592 43.9438 36.0528C43.4772 36.2464 42.977 36.3461 42.4718 36.3461Z" />
    </symbol>

    <symbol viewBox="0 0 65 65" id="main-prefs-5">
        <path d="M20.3873 36.9318V38.8523H24.7909L18.4668 45.1763L19.8246 46.5341L26.1486 40.21V44.6136H28.0691V36.9318H20.3873Z" />
        <path d="M41.5123 37.8921H39.5918V42.6932H41.5123V37.8921Z" />
        <path d="M37.6714 33.0909H35.751V42.6932H37.6714V33.0909Z" />
        <path d="M33.8296 35.0114H31.9092V42.6932H33.8296V35.0114Z" />
        <path d="M43.4327 19.6478H20.3873C19.8781 19.6483 19.3899 19.8508 19.0298 20.2108C18.6698 20.5709 18.4673 21.059 18.4668 21.5682V33.0909H20.3873V30.2103H43.4337L43.4346 44.6137H31.91V46.5341H43.4327C43.9418 46.5334 44.4299 46.3309 44.7899 45.9709C45.1499 45.6109 45.3525 45.1228 45.3532 44.6137V21.5682C45.3526 21.0591 45.1501 20.5709 44.79 20.2109C44.43 19.8509 43.9419 19.6484 43.4327 19.6478ZM28.0691 28.2898H20.3873V21.5682H28.0691V28.2898ZM29.9895 28.2898V21.5682H43.4327L43.4334 28.2898H29.9895Z" />
    </symbol>

    <symbol viewBox="0 0 65 65" id="main-prefs-6">
        <path d="M38.8296 44.9093C37.7719 44.9014 36.7189 44.7687 35.6924 44.5138C32.1477 43.6585 28.4974 41.4889 25.4157 38.4045C22.334 35.3201 20.1617 31.6692 19.3065 28.1278C18.4059 24.4025 19.0482 21.2153 21.113 19.1505L21.7026 18.5609C22.2375 18.0271 22.9623 17.7273 23.718 17.7273C24.4737 17.7273 25.1986 18.0271 25.7335 18.5609L29.1214 21.9482C29.6556 22.4829 29.9556 23.2078 29.9556 23.9637C29.9556 24.7195 29.6556 25.4444 29.1214 25.9791L27.1202 27.9797C28.0796 29.6632 29.3844 31.348 30.9266 32.8902C32.4688 34.4324 34.155 35.738 35.8378 36.6973L37.8384 34.6961C38.103 34.4314 38.4172 34.2213 38.7631 34.0781C39.1089 33.9348 39.4795 33.861 39.8538 33.861C40.2282 33.861 40.5988 33.9348 40.9446 34.0781C41.2905 34.2213 41.6047 34.4314 41.8693 34.6961L45.2566 38.0834C45.7909 38.6179 46.091 39.3427 46.091 40.0985C46.091 40.8542 45.7909 41.5791 45.2566 42.1136L44.6663 42.7032C43.2107 44.1615 41.1959 44.9093 38.8296 44.9093ZM23.718 19.7543C23.6101 19.7537 23.5031 19.7747 23.4034 19.8161C23.3037 19.8574 23.2132 19.9182 23.1373 19.995L22.547 20.5845C21.0008 22.1308 20.5491 24.6411 21.2753 27.6491C22.044 30.8356 24.0229 34.1464 26.847 36.9698C29.6711 39.7932 32.9813 41.7701 36.1684 42.5416C39.1771 43.2677 41.6861 42.8161 43.2323 41.2698L43.8219 40.6803C43.9759 40.5261 44.0625 40.3171 44.0625 40.0992C44.0625 39.8812 43.9759 39.6722 43.8219 39.518L40.4353 36.1308C40.2811 35.9767 40.0721 35.8902 39.8542 35.8902C39.6363 35.8902 39.4272 35.9767 39.2731 36.1308L36.737 38.6668C36.5849 38.8191 36.3882 38.919 36.1755 38.952C35.9628 38.9851 35.7451 38.9496 35.5538 38.8507C33.4748 37.7757 31.3789 36.2106 29.4926 34.3242C27.6063 32.4379 26.0445 30.3434 24.9668 28.2643C24.8678 28.0732 24.8322 27.8555 24.8652 27.6428C24.8981 27.4301 24.9979 27.2334 25.15 27.0812L27.6867 24.5451C27.8408 24.3909 27.9273 24.1819 27.9273 23.964C27.9273 23.7461 27.8408 23.5371 27.6867 23.3829L24.2995 19.995C24.2233 19.9183 24.1327 19.8576 24.0329 19.8163C23.9331 19.775 23.8261 19.7539 23.718 19.7543Z" />
        <path d="M39.9124 32.7169C39.6435 32.7169 39.3855 32.61 39.1953 32.4198C39.0051 32.2296 38.8983 31.9717 38.8983 31.7027C38.8963 29.9236 38.1887 28.2179 36.9307 26.9598C35.6728 25.7016 33.9671 24.9939 32.188 24.9917C31.919 24.9917 31.6611 24.8849 31.4709 24.6947C31.2807 24.5045 31.1738 24.2466 31.1738 23.9776C31.1738 23.7086 31.2807 23.4507 31.4709 23.2605C31.6611 23.0703 31.919 22.9634 32.188 22.9634C37.0066 22.9634 40.9266 26.8848 40.9266 31.7027C40.9266 31.9717 40.8197 32.2296 40.6295 32.4198C40.4394 32.61 40.1814 32.7169 39.9124 32.7169Z" />
        <path d="M44.1989 32.7171C43.9299 32.7171 43.672 32.6102 43.4818 32.4201C43.2916 32.2299 43.1848 31.9719 43.1848 31.7029C43.1848 25.639 38.2492 20.7055 32.188 20.7055C31.919 20.7055 31.6611 20.5986 31.4709 20.4085C31.2807 20.2183 31.1738 19.9603 31.1738 19.6913C31.1738 19.4224 31.2807 19.1644 31.4709 18.9742C31.6611 18.784 31.919 18.6772 32.188 18.6772C39.3702 18.6772 45.2131 24.5207 45.2131 31.7029C45.2131 31.9719 45.1062 32.2299 44.916 32.4201C44.7258 32.6102 44.4679 32.7171 44.1989 32.7171Z" />
    </symbol>

    <symbol viewBox="0 0 65 65" id="main-prefs-7">
        <path d="M41.3636 30.7273H24.8182C23.5128 30.7273 22.4545 31.7855 22.4545 33.0909V41.3636C22.4545 42.669 23.5128 43.7273 24.8182 43.7273H41.3636C42.669 43.7273 43.7273 42.669 43.7273 41.3636V33.0909C43.7273 31.7855 42.669 30.7273 41.3636 30.7273Z" stroke="white" stroke-width="2" stroke-linecap="round" stroke-linejoin="round" fill="none" />
        <path d="M27.1818 30.7273V26C27.1818 24.4328 27.8044 22.9298 28.9126 21.8216C30.0207 20.7135 31.5237 20.0909 33.0909 20.0909C34.6581 20.0909 36.1611 20.7135 37.2693 21.8216C38.3774 22.9298 39 24.4328 39 26V30.7273" stroke="white" stroke-width="2" stroke-linecap="round" stroke-linejoin="round" fill="none" />
    </symbol>

    <symbol viewBox="0 0 40 40" id="main-company-prefs-1">
        <path d="M19.5 9.71875C17.3677 9.71875 15.2832 10.3511 13.5103 11.5357C11.7373 12.7204 10.3554 14.4042 9.53943 16.3742C8.72342 18.3442 8.50992 20.512 8.92591 22.6033C9.34191 24.6947 10.3687 26.6157 11.8765 28.1235C13.3843 29.6313 15.3053 30.6581 17.3967 31.0741C19.488 31.4901 21.6558 31.2766 23.6258 30.4606C25.5958 29.6446 27.2796 28.2627 28.4643 26.4897C29.6489 24.7168 30.2813 22.6323 30.2813 20.5C30.2813 17.6406 29.1454 14.8984 27.1235 12.8765C25.1016 10.8546 22.3594 9.71875 19.5 9.71875ZM19.5 30.0809C17.6051 30.0809 15.7527 29.519 14.1771 28.4663C12.6015 27.4135 11.3735 25.9172 10.6484 24.1665C9.92321 22.4158 9.73348 20.4894 10.1032 18.6309C10.4728 16.7723 11.3853 15.0652 12.7253 13.7253C14.0652 12.3853 15.7723 11.4728 17.6309 11.1032C19.4894 10.7335 21.4158 10.9232 23.1665 11.6484C24.9172 12.3735 26.4135 13.6015 27.4663 15.1771C28.519 16.7527 29.0809 18.6051 29.0809 20.5C29.0771 23.0399 28.0665 25.4746 26.2706 27.2705C24.4746 29.0665 22.0399 30.0771 19.5 30.0809Z" />
        <path d="M22.8425 14.5128L21.8362 13.5497L15.0225 21.2187H20.8443L16.1581 26.4944L17.1643 27.4431L23.9781 19.7812H18.1562L22.8425 14.5128Z" />
    </symbol>

    <symbol viewBox="0 0 40 40" id="main-company-prefs-2">
        <path d="M25.833 23.5H14.1663C12.8777 23.5 11.833 24.5447 11.833 25.8333C11.833 27.122 12.8777 28.1667 14.1663 28.1667H25.833C27.1217 28.1667 28.1663 27.122 28.1663 25.8333C28.1663 24.5447 27.1217 23.5 25.833 23.5Z" stroke="white" stroke-linecap="round" stroke-linejoin="round" fill="none" />
        <path d="M27.875 15.3334L26.1717 12.4167C26.0699 12.2404 25.9237 12.0938 25.7477 11.9914C25.5717 11.8891 25.3719 11.8346 25.1683 11.8334H14.8317C14.6281 11.8346 14.4283 11.8891 14.2523 11.9914C14.0763 12.0938 13.9301 12.2404 13.8283 12.4167L12.125 15.3334" stroke="white" stroke-linecap="round" stroke-linejoin="round" fill="none" />
        <path d="M16.5003 25.8334H14.167" stroke="white" stroke-linecap="round" stroke-linejoin="round" fill="none" />
        <path d="M25.833 18.8334H14.1663C12.8777 18.8334 11.833 19.878 11.833 21.1667C11.833 22.4554 12.8777 23.5 14.1663 23.5H25.833C27.1217 23.5 28.1663 22.4554 28.1663 21.1667C28.1663 19.878 27.1217 18.8334 25.833 18.8334Z" stroke="white" stroke-linecap="round" stroke-linejoin="round" fill="none" />
        <path d="M16.5003 21.1666H14.167" stroke="white" stroke-linecap="round" stroke-linejoin="round" fill="none" />
        <path d="M25.833 14.1666H14.1663C12.8777 14.1666 11.833 15.2113 11.833 16.5C11.833 17.7886 12.8777 18.8333 14.1663 18.8333H25.833C27.1217 18.8333 28.1663 17.7886 28.1663 16.5C28.1663 15.2113 27.1217 14.1666 25.833 14.1666Z" stroke="white" stroke-linecap="round" stroke-linejoin="round" fill="none" />
        <path d="M16.5003 16.5H14.167" stroke="white" stroke-linecap="round" stroke-linejoin="round" fill="none" />
    </symbol>

    <symbol viewBox="0 0 40 40" id="main-company-prefs-3">
        <path d="M16.4574 27.6348H16.4581H27.8058H29.583V26.4766H28.3852V18.1055C28.3852 17.8814 28.2554 17.677 28.0524 17.5813C27.8501 17.4862 27.6092 17.5162 27.4362 17.6593L22.7289 21.5574L22.7102 18.1021C22.7088 17.8838 22.5852 17.6845 22.3896 17.587C22.1941 17.4896 21.9604 17.5104 21.7856 17.6409L17.0375 21.179V14.9227C17.0375 14.6029 16.7779 14.3436 16.4581 14.3436H13.6142C13.3209 14.3436 13.0733 14.5637 13.0392 14.8553L11.6773 26.4766H10.4941V27.6348H12.1927H16.4574ZM21.5588 19.2546L21.5775 22.7862C21.5789 23.0097 21.7093 23.213 21.9113 23.3077C22.1151 23.4021 22.3539 23.3718 22.5262 23.2294L27.227 19.337V26.4766H17.0379V22.6237L21.5588 19.2546ZM14.13 15.5019H15.8793V22.328C15.8793 22.33 15.8786 22.3317 15.8786 22.3338V26.4769H12.844L14.13 15.5019Z" />
        <path d="M14.6563 13.8933C14.719 13.9147 14.782 13.9246 14.844 13.9246C15.0848 13.9246 15.3097 13.7733 15.3921 13.5332C15.899 12.053 17.3523 11.8319 18.442 12.0908C20.3395 12.5442 21.8919 12.6958 23.1772 10.2366C23.325 9.95319 23.215 9.60333 22.9316 9.45515C22.6495 9.3073 22.299 9.41665 22.1504 9.70008C21.3087 11.3111 20.6253 11.4218 18.7105 10.9639C17.0239 10.5616 15.0058 11.0845 14.2959 13.1571C14.1926 13.4599 14.3538 13.7894 14.6563 13.8933Z" />
    </symbol>

    <symbol viewBox="0 0 20 20" id="page-header-back-link">
        <rect x="11.4575" y="4.63062" width="1.33313" height="7.33224" transform="rotate(45 11.4575 4.63062)" />
        <rect x="6.27283" y="9.81543" width="1.33313" height="7.33224" transform="rotate(-45 6.27283 9.81543)" />
    </symbol>

    <symbol viewBox="0 0 32 32" id="faq-item-title">
        <rect x="7.40918" y="13.6681" width="2.13301" height="11.7316" transform="rotate(-45 7.40918 13.6681)" />
        <rect x="15.7051" y="21.9635" width="2.13301" height="11.7316" transform="rotate(-135 15.7051 21.9635)" />
    </symbol>

    <symbol viewBox="0 0 40 46" id="file-icon">
        <path d="M8.88889 36.5H31.1111V32H8.88889V36.5Z" />
        <path d="M31.1111 27.5H8.88889V23H31.1111V27.5Z" />
        <path d="M8.88889 18.5H17.7778V14H8.88889V18.5Z" />
        <path fill-rule="evenodd" clip-rule="evenodd" d="M6.66667 0.5C2.98477 0.5 0 3.52208 0 7.25V38.75C0 42.4779 2.98477 45.5 6.66667 45.5H33.3333C37.0152 45.5 40 42.4779 40 38.75V16.25C40 7.55152 33.0355 0.5 24.4444 0.5H6.66667ZM6.66667 5H22.2222V16.25H35.5556V38.75C35.5556 39.9926 34.5606 41 33.3333 41H6.66667C5.43937 41 4.44444 39.9926 4.44444 38.75V7.25C4.44444 6.00736 5.43937 5 6.66667 5ZM26.6667 5.22504C30.2474 5.96098 33.2028 8.44037 34.631 11.75H26.6667V5.22504Z" />
    </symbol>

    <symbol viewBox="0 0 32 32" id="window-close">
        <path fill-rule="evenodd" clip-rule="evenodd" d="M17.4143 16.0001L25.8996 7.5148L24.4854 6.10059L16.0001 14.5859L7.5148 6.10059L6.10059 7.5148L14.5859 16.0001L6.10059 24.4854L7.5148 25.8996L16.0001 17.4143L24.4854 25.8996L25.8996 24.4854L17.4143 16.0001Z" />
    </symbol>

    <symbol viewBox="0 0 24 25" id="pager-prev">
        <rect x="15.1328" y="4.86938" width="2.00955" height="11.0525" transform="rotate(45 15.1328 4.86938)" />
        <rect x="7.32031" y="12.6846" width="2.00955" height="11.0525" transform="rotate(-45 7.32031 12.6846)" />
    </symbol>

    <symbol viewBox="0 0 24 25" id="pager-next">
        <rect x="8.86719" y="20.1306" width="2.00955" height="11.0525" transform="rotate(-135 8.86719 20.1306)" />
        <rect x="16.6797" y="12.3154" width="2.00955" height="11.0525" transform="rotate(135 16.6797 12.3154)" />
    </symbol>

    <symbol viewBox="0 0 32 32" id="gallery-prev">
        <rect x="16.8164" y="8" width="2.00955" height="11.0525" transform="rotate(45 16.8164 8)" />
        <rect x="9" y="15.8152" width="2.00955" height="11.0525" transform="rotate(-45 9 15.8152)" />
    </symbol>

    <symbol viewBox="0 0 32 32" id="gallery-next">
        <rect x="15.1836" y="24" width="2.00955" height="11.0525" transform="rotate(-135 15.1836 24)" />
        <rect x="23" y="16.1848" width="2.00955" height="11.0525" transform="rotate(135 23 16.1848)" />
    </symbol>

    <symbol viewBox="0 0 32 32" id="news-card-ctrl-back-link">
        <rect x="18.332" y="7.40918" width="2.13301" height="11.7316" transform="rotate(45 18.332 7.40918)" />
        <rect x="10.0391" y="15.7048" width="2.13301" height="11.7316" transform="rotate(-45 10.0391 15.7048)" />
    </symbol>

    <symbol viewBox="0 0 32 32" id="news-card-ctrl-social-ok">
        <path fill-rule="evenodd" clip-rule="evenodd" d="M0 16C0 7.16344 7.16344 0 16 0C24.8366 0 32 7.16344 32 16C32 24.8366 24.8366 32 16 32C7.16344 32 0 24.8366 0 16ZM16.0008 16.2569C18.3601 16.2569 20.278 14.4053 20.278 12.1291C20.278 9.85207 18.3601 8 16.0008 8C13.6419 8 11.7235 9.85207 11.7235 12.1291C11.7235 14.4053 13.6419 16.2569 16.0008 16.2569ZM20.2265 18.6337C19.4531 19.1026 18.6134 19.4351 17.7428 19.6266L20.1339 21.935C20.6237 22.4068 20.6237 23.1731 20.1339 23.6455C19.6445 24.1178 18.8514 24.1178 18.3626 23.6455L16.0117 21.3771L13.6628 23.6455C13.4179 23.8814 13.0969 23.9995 12.776 23.9995C12.4556 23.9995 12.1352 23.8814 11.8903 23.6455C11.4009 23.1731 11.4009 22.4073 11.8897 21.935L14.2811 19.6266C13.4105 19.4351 12.5708 19.1021 11.7974 18.6337C11.2121 18.2775 11.0362 17.5312 11.405 16.9657C11.7728 16.3995 12.5462 16.229 13.1325 16.5853C14.8836 17.6485 17.1393 17.6488 18.8914 16.5853C19.4777 16.229 20.2508 16.3995 20.6194 16.9657C20.9882 17.5307 20.8118 18.2775 20.2265 18.6337Z" />
        <path d="M15.9976 10.4204C16.9742 10.4204 17.7686 11.187 17.7686 12.1297C17.7686 13.0717 16.9742 13.8387 15.9976 13.8387C15.0217 13.8387 14.2266 13.0717 14.2266 12.1297C14.2266 11.187 15.0217 10.4204 15.9976 10.4204Z" />
    </symbol>

    <symbol viewBox="0 0 32 32" id="news-card-ctrl-social-tw">
        <path fill-rule="evenodd" clip-rule="evenodd" d="M16 0C7.16344 0 0 7.16344 0 16C0 24.8366 7.16344 32 16 32C24.8366 32 32 24.8366 32 16C32 7.16344 24.8366 0 16 0ZM15.5544 13.559L15.5208 13.0054C15.4201 11.5704 16.3042 10.2598 17.7032 9.75136C18.218 9.57058 19.0909 9.54798 19.6617 9.70616C19.8856 9.77395 20.3108 9.99993 20.613 10.2033L21.1614 10.5762L21.7658 10.3841C22.1015 10.2824 22.5492 10.1129 22.7506 9.99993C22.9409 9.89824 23.1088 9.84174 23.1088 9.87564C23.1088 10.0677 22.6947 10.723 22.3477 11.0846C21.8777 11.593 22.012 11.6382 22.9633 11.2993C23.534 11.1072 23.5452 11.1072 23.4333 11.3219C23.3662 11.4349 23.0192 11.8303 22.6499 12.1919C22.0232 12.8133 21.9896 12.8811 21.9896 13.4008C21.9896 14.203 21.6091 15.8752 21.2286 16.7904C20.5235 18.5078 19.0126 20.2817 17.5017 21.1743C15.3753 22.4285 12.5438 22.7449 10.16 22.0104C9.36538 21.7619 8 21.1291 8 21.0162C8 20.9823 8.41409 20.9371 8.91772 20.9258C9.96973 20.9032 11.0218 20.6094 11.9171 20.0897L12.5214 19.7281L11.8276 19.4908C10.8427 19.1519 9.95854 18.3723 9.73471 17.6378C9.66756 17.4006 9.68994 17.3893 10.3167 17.3893L10.9658 17.378L10.4174 17.1181C9.76828 16.7904 9.17513 16.2368 8.88414 15.6719C8.6715 15.2651 8.4029 14.2369 8.48124 14.1578C8.50362 14.1239 8.73865 14.1917 9.00725 14.2821C9.77948 14.5646 9.8802 14.4968 9.43253 14.0223C8.59316 13.1636 8.33575 11.8868 8.73865 10.6778L8.92891 10.1355L9.66756 10.8699C11.1784 12.3501 12.9579 13.2314 14.9948 13.4912L15.5544 13.559Z" />
    </symbol>

    <symbol viewBox="0 0 32 32" id="news-card-ctrl-social-vk">
        <path fill-rule="evenodd" clip-rule="evenodd" d="M32 16C32 24.8366 24.8366 32 16 32C7.16344 32 0 24.8366 0 16C0 7.16344 7.16344 0 16 0C24.8366 0 32 7.16344 32 16ZM25.4964 10.1625C26.1965 10.1625 26.3545 10.5238 26.1965 11.0206C25.9497 12.1592 23.901 15.1796 23.2665 16.1151C23.1459 16.2929 23.0764 16.3954 23.08 16.3954C22.8316 16.8019 22.7413 16.9825 23.08 17.4342C23.2025 17.6012 23.4621 17.856 23.7589 18.1472C24.0641 18.4467 24.4086 18.7847 24.6834 19.1053C25.677 20.2345 26.4449 21.1829 26.6481 21.8378C26.8288 22.4927 26.5126 22.8315 25.8351 22.8315H23.5091C22.8927 22.8315 22.5749 22.4775 21.8977 21.723C21.6074 21.3995 21.2509 21.0024 20.7766 20.528C19.399 19.1956 18.7893 19.015 18.4505 19.015C17.9763 19.015 17.8408 19.1279 17.8408 19.8054V21.9056C17.8408 22.4702 17.6601 22.8089 16.1696 22.8089C13.7081 22.8089 10.9756 21.3184 9.05602 18.5407C6.1654 14.4758 5.375 11.4045 5.375 10.7948C5.375 10.4561 5.48791 10.1399 6.1654 10.1399H8.51403C9.10118 10.1399 9.32701 10.3883 9.55284 11.0432C10.7046 14.3629 12.6241 17.2761 13.4145 17.2761C13.7081 17.2761 13.8436 17.1406 13.8436 16.3954V12.9628C13.7878 11.9871 13.4482 11.562 13.1963 11.2467C13.0401 11.0512 12.9177 10.898 12.9177 10.6819C12.9177 10.4109 13.1435 10.1399 13.5049 10.1399H17.1633C17.6601 10.1399 17.8408 10.4109 17.8408 10.998V15.6275C17.8408 16.1244 18.044 16.305 18.2021 16.305C18.4957 16.305 18.7441 16.1244 19.2861 15.5824C20.9572 13.708 22.1541 10.8174 22.1541 10.8174C22.3122 10.4786 22.5832 10.1625 23.1703 10.1625H25.4964Z" />
    </symbol>

    <symbol viewBox="0 0 24 24" id="map-operator-link">
        <path d="M10 13C10.4295 13.5741 10.9774 14.0491 11.6066 14.3929C12.2357 14.7367 12.9315 14.9411 13.6467 14.9923C14.3618 15.0435 15.0796 14.9403 15.7513 14.6897C16.4231 14.4392 17.0331 14.047 17.54 13.54L20.54 10.54C21.4508 9.59695 21.9548 8.33394 21.9434 7.02296C21.932 5.71198 21.4061 4.45791 20.4791 3.53087C19.5521 2.60383 18.298 2.07799 16.987 2.0666C15.676 2.0552 14.413 2.55918 13.47 3.46997L11.75 5.17997" stroke-width="2" stroke-linecap="round" stroke-linejoin="round" />
        <path d="M14.0002 11C13.5707 10.4259 13.0228 9.9508 12.3936 9.60704C11.7645 9.26328 11.0687 9.05886 10.3535 9.00765C9.63841 8.95643 8.92061 9.05961 8.24885 9.3102C7.5771 9.56079 6.96709 9.95291 6.4602 10.46L3.4602 13.46C2.54941 14.403 2.04544 15.666 2.05683 16.977C2.06822 18.288 2.59407 19.542 3.52111 20.4691C4.44815 21.3961 5.70221 21.922 7.01319 21.9334C8.32418 21.9447 9.58719 21.4408 10.5302 20.53L12.2402 18.82" stroke-width="2" stroke-linecap="round" stroke-linejoin="round" />
    </symbol>

</svg>